# xmcd
#
# Track frame offsets:
#	150
#	18101
#	38029
#	56472
#	71517
#	93431
#	109245
#	129616
#	147077
#	166578
#	186505
#	203457
#	222628
#	241817
#	256799
#	271671
#	287835
#	303778
#	318756
#	335872
#
# Disc length: 4731 seconds
#
# Revision: 0
# Processed by: cddbd v1.5.1PL0 Copyright (c) Steve Scherf et al.
# Submitted via: dBpowerAMP V4.0
#
DISCID=18127914
DTITLE=Μιχάλης Ρακιντζής - Παπάνα
DYEAR=2004
DGENRE=Pop
TTITLE0=Κάνε Μια Ευχή
TTITLE1=Μωρό Μου Φάλτσο
TTITLE2=Αγάπη Του Καλοκαιριού
TTITLE3=Απαγωγή
TTITLE4=Δαχτυλίδι
TTITLE5=Δικός Σου Για Πάντα
TTITLE6=Εγώ Κι Ο Πουφ
TTITLE7=Έρωτας Είναι
TTITLE8=Καρδούλα Μου Εγώ Κι Εσύ
TTITLE9=14 Φλεβάρη
TTITLE10=Κουνέλι
TTITLE11=Μόνο Μέσα Στην Αγκαλιά Μου
TTITLE12=Να Είσαι Εκεί
TTITLE13=Όσο Κι Αν Κλαίω
TTITLE14=Προκαλείς
TTITLE15=Πάει Πάει
TTITLE16=Τελευταίο Καλοκαίρι
TTITLE17=Τι Σου Λείπει
TTITLE18=Το Φίλο Σου Ζηλεύω
TTITLE19=Φωτιά Και Σίδερο
EXTD=
EXTT0=
EXTT1=
EXTT2=
EXTT3=
EXTT4=
EXTT5=
EXTT6=
EXTT7=
EXTT8=
EXTT9=
EXTT10=
EXTT11=
EXTT12=
EXTT13=
EXTT14=
EXTT15=
EXTT16=
EXTT17=
EXTT18=
EXTT19=
PLAYORDER=
